<?xml version="1.0" encoding="UTF-8"?>
<!-- Generator: Adobe Illustrator 27.4.0, SVG Export Plug-In . SVG Version: 6.00 Build 0)  -->
<svg xmlns="http://www.w3.org/2000/svg" xmlns:xlink="http://www.w3.org/1999/xlink" version="1.1" id="Layer_1" x="0px" y="0px" width="500px" height="500px" viewBox="0 0 500 500" style="enable-background:new 0 0 500 500;" xml:space="preserve">
<style type="text/css">
	
		.st0{opacity:0.2;clip-path:url(#SVGID_00000047757489967800816380000006354099361565978502_);fill:#BBBBBB;enable-background:new    ;}
	.st1{fill:#021836;}
	.st2{fill-rule:evenodd;clip-rule:evenodd;fill:#D61F26;}
</style>
<g>
	<defs>
		<rect id="SVGID_1_" width="500" height="500"></rect>
	</defs>
	<clipPath id="SVGID_00000016077323934754939420000007453312243104414378_">
		<use xlink:href="#SVGID_1_" style="overflow:visible;"></use>
	</clipPath>
	
		<path style="opacity:0.2;clip-path:url(#SVGID_00000016077323934754939420000007453312243104414378_);fill:#BBBBBB;enable-background:new    ;" d="   M398.8,46.7c-2.1,0-4.1-0.6-5.9-1.6C344,18.3,301.7,7,250.9,7c-50.5,0-98.4,12.7-142.1,38.1c-6.1,3.5-13.8,1.1-17.3-5.4   c-3.3-6.5-1-14.9,5.1-18.4C143.5-5.9,196.7-20.1,250.9-20c54.3,0,101.8,12.7,153.8,41c3.1,1.7,5.3,4.6,6.3,8c1,3.4,0.7,7-1,10.1   C407.7,44,403.4,46.7,398.8,46.7z M33.8,188.4c-2.7,0-5.2-0.9-7.4-2.4c-5.9-4.3-7.1-12.7-3.1-18.9c25.3-37.8,57.4-67.5,95.6-88.3   c80.1-43.7,182.6-44,263-0.3c38.3,20.8,70.4,50.2,95.6,87.8c4.1,5.9,2.8,14.6-3.1,18.9c-1.4,1-2.9,1.8-4.6,2.2s-3.4,0.4-5.1,0.1   c-1.7-0.3-3.3-1-4.7-1.9c-1.4-1-2.6-2.2-3.5-3.7c-23-34-52-60.7-86.5-79.4c-73.2-39.7-166.8-39.7-239.7,0.3   c-34.7,18.9-63.8,45.9-86.7,79.9c-1,1.8-2.4,3.2-4.2,4.2C37.8,188,35.9,188.5,33.8,188.4z M193.2,514.3c-1.7,0-3.4-0.3-4.9-1   c-1.5-0.7-2.9-1.7-4-3c-22.2-23.5-34.2-38.6-51.3-71.3c-17.6-33.2-26.8-73.7-26.8-117.1c0-80.2,64.8-145.6,144.4-145.6   S395,241.6,395,321.8c0,7.6-5.6,13.5-12.8,13.5c-7.1,0-12.7-6-12.7-13.5c0-65.3-53.3-118.5-118.9-118.5   c-65.5,0-118.9,53.2-118.9,118.5c0,38.9,8.2,74.8,23.7,104c16.3,31,27.5,44.3,47.2,65.3c2.3,2.6,3.6,6.1,3.6,9.6   c0,3.5-1.3,6.9-3.6,9.6C200.2,512.8,196.8,514.3,193.2,514.3z M376.1,464.4c-30.4,0-57.1-8.1-79.1-24   c-18.8-13.5-34.1-31.3-44.6-51.9c-10.6-20.6-16.1-43.4-16.1-66.6c0-7.6,5.6-13.5,12.8-13.5c7.1,0,12.8,5.9,12.8,13.5   c0,18.8,4.5,37.4,13.1,54.1c8.6,16.7,21.1,31.1,36.4,42c18.1,13,39.3,19.2,64.8,19.2c8.9-0.2,17.8-1.1,26.5-2.7   c6.9-1.3,13.5,3.5,14.8,11.1c0.7,3.5-0.1,7-2,10c-2,2.9-5,5-8.4,5.7C396.8,463.2,386.5,464.3,376.1,464.4z M324.9,520   c-1.1,0-2.2-0.2-3.3-0.5c-40.5-11.9-67.1-27.8-94.9-56.7c-35.7-37.6-55.3-87.5-55.3-140.9c0-43.7,35.2-79.4,78.6-79.4   s78.6,35.6,78.6,79.4c0,28.9,23.7,52.4,53.1,52.4c29.3,0,53.1-23.5,53.1-52.4c0-101.8-82.9-184.4-184.9-184.4   c-72.5,0-138.8,42.6-168.6,108.8c-10,21.9-15,47.5-15,75.6c0,21.1,1.8,54.3,17.1,97.5c2.6,7-0.8,14.9-7.4,17.3   c-6.6,2.7-14-1.1-16.3-7.8c-12.5-35.4-18.6-70.5-18.6-106.9c0-32.4,5.9-61.8,17.3-87.5C92,159,167.3,110.1,249.7,110.1   c116,0,210.4,94.8,210.4,211.4c0,43.7-35.2,79.4-78.6,79.4S303,365.3,303,321.6c0-28.9-23.7-52.4-53.1-52.4s-53.1,23.5-53.1,52.4   c0,46.2,16.8,89.4,47.7,121.8c24.2,25.4,47.4,39.4,83.4,49.9c6.9,1.9,10.7,9.4,9,16.5C335.6,516,330.2,520,324.9,520z"></path>
</g>
<path class="st1" d="M37.8,42.8c3.7,0,6.7-3,6.7-6.7c0-3.7-3-6.7-6.7-6.7c-3.7,0-6.7,3-6.7,6.7C31.1,39.8,34.1,42.8,37.8,42.8z"></path>
<path class="st1" d="M51.6,25.2c1.4,0,2.6-1.2,2.6-2.6S53,20,51.6,20S49,21.2,49,22.6S50.1,25.2,51.6,25.2z"></path>
<path class="st1" d="M46.4,51.7c2.6,0,4.6-2.1,4.6-4.6s-2.1-4.6-4.6-4.6c-2.6,0-4.6,2.1-4.6,4.6S43.8,51.7,46.4,51.7z"></path>
<path class="st1" d="M23.6,45.3c2,0,3.6-1.6,3.6-3.6s-1.6-3.6-3.6-3.6S20,39.7,20,41.7S21.6,45.3,23.6,45.3z"></path>
<g>
	<g>
		<g>
			<path class="st2" d="M116.8,248.7L116.8,248.7l-9.3,3.8l-0.3,0.2l-2.3,10.3c-0.2,0.3-0.6,0.4-0.9,0.2l-6.8-8l0,0l-38,16.2     c-0.3,0.2-0.5-0.3-0.3-0.4l32.9-24.6l-4.2-9.5c-0.2-0.4,0.2-0.9,0.7-0.8l10.1,2.5l7.8-6.9c0.3-0.3,0.8-0.1,0.8,0.3l0.8,10.4     l9,5.3C117.3,248.1,117.2,248.6,116.8,248.7L116.8,248.7z M112.2,218.9c-11.7-4.6-24.5-1.1-32.5,7.6l-30.8,33     c-0.4,0.4-0.3,1,0.3,1.1l8.2,0.5c0.7,0,0.8,0.6,0.4,1l-20.1,21.8c-0.3,0.3,0.1,0.9,0.6,0.8l28.6-9.1c0.6-0.3,1.1,0.3,0.8,0.8     l-3.8,6.8c-0.2,0.4,0.2,0.9,0.7,0.8l41.4-9.2c9.9-1.5,18.7-8.1,22.6-18.1C134.6,241.7,127.2,224.8,112.2,218.9L112.2,218.9z"></path>
		</g>
	</g>
	<polyline class="st2" points="223.1,269.1 213.7,269.1 221.1,234.7 231.4,230.9 223.1,269.1  "></polyline>
	<path class="st2" d="M202.9,249.4c-2.3,0-3.6,1.9-4.1,4.1c4.5,0,5.8-1.4,5.8-2.5C204.7,250.1,203.9,249.4,202.9,249.4 M197.8,259.5   c-0.1,0.3-0.1,0.7-0.1,0.9c0,1.5,1,2,3.8,2c2.5,0,6-0.6,8.1-1.4v7c-2.6,0.9-6.8,1.5-10.1,1.5c-7.8,0-11.5-2.1-11.5-9.2   c0-6.9,3.2-17.7,15.6-17.7c7.9,0,10.3,3.6,10.3,7.3C213.8,254.9,209.7,259.1,197.8,259.5"></path>
	<path class="st2" d="M240.3,241.5c-3.2,0-5.3-2-5.3-4.9c0-3.7,2.6-5.8,5.8-5.8c3.3,0,5.3,2,5.3,4.8   C246.1,239.5,243.6,241.5,240.3,241.5"></path>
	<polyline class="st2" points="233.6,243.7 243.4,243.7 238.5,268.8 228.6,268.8 232.1,251.2  "></polyline>
	<path class="st2" d="M271.4,243.7c-3.4,8.5-7,16.7-11.8,25.2h-12c-1.5-8-2.2-16.4-2-25.2h9.8c-0.2,4.1-0.2,8.2,0.1,12.3   c0.1,1.1,0.2,2,0.3,3.1h0.1c0.4-1,0.9-2,1.4-3.1c1.7-4.2,3.2-8.6,4.4-12.3H271.4"></path>
	<path class="st2" d="M284.5,249.4c-2.3,0-3.6,1.9-4.1,4.1c4.5,0,5.8-1.4,5.8-2.5C286.2,250.1,285.5,249.4,284.5,249.4 M279.3,259.5   c-0.1,0.3-0.1,0.6-0.1,0.9c0,1.5,1.1,2,3.8,2c2.5,0,6-0.6,8.1-1.4v7c-2.6,0.9-6.8,1.5-10.1,1.5c-7.8,0-11.5-2.1-11.5-9.2   c0-6.9,3.2-17.7,15.6-17.7c7.9,0,10.3,3.6,10.3,7.3C295.4,254.9,291.3,259.1,279.3,259.5"></path>
	<path class="st2" d="M314.3,252.5c-0.8-0.2-1.5-0.3-2.4-0.3c-2.2,0-3.9,2.2-4.7,6.2l-2,10.4h-9.8l4.9-25.2h7.4l0.3,3.4   c2.3-2.8,4.1-4.2,6.8-4.2c1.3,0,1.9,0.1,2.3,0.2L314.3,252.5"></path>
	<path class="st2" d="M345,243.7c-4.3,11.3-8.1,19.5-12,25.2c-5.6,8.3-10.5,10.3-15.5,10.3c-1.5,0-3.1-0.4-3.8-0.8l1.5-7.3h3.4   c1.7,0,2.4-0.7,3.5-2.1c-1.9-6.8-2.8-16.3-2.7-25.2h9.8c-0.2,4.1-0.2,8.1,0.1,12.1c0.1,1.1,0.2,2.2,0.3,3.2h0.1   c0.4-1,0.9-2,1.4-3.1c1.6-4,3.1-8.1,4.2-12.3H345"></path>
	<polyline class="st2" points="382.7,268.8 372.4,268.8 374.8,256.1 366,256.1 363.6,268.8 353.2,268.8 359.7,235.2 370.2,235.2    367.8,247.2 376.5,247.2 378.9,235.2 389.2,235.2 382.7,268.8  "></polyline>
	<path class="st2" d="M403,249.4c-2.3,0-3.6,1.9-4.1,4.1c4.5,0,5.8-1.4,5.8-2.5C404.8,250.1,404.1,249.4,403,249.4 M397.9,259.5   c-0.1,0.3-0.1,0.6-0.1,0.9c0,1.5,1.1,2,3.8,2c2.5,0,6.1-0.6,8.1-1.4v7c-2.6,0.9-6.8,1.5-10.1,1.5c-7.8,0-11.5-2.1-11.5-9.2   c0-6.9,3.2-17.7,15.6-17.7c7.9,0,10.3,3.6,10.3,7.3C414.1,254.9,409.8,259.1,397.9,259.5"></path>
	<path class="st2" d="M432.9,252.5c-0.8-0.2-1.5-0.3-2.4-0.3c-2.1,0-3.9,2.2-4.7,6.2l-2,10.4H414l4.9-25.2h7.4l0.3,3.4   c2.3-2.8,4.1-4.2,6.8-4.2c1.3,0,1.9,0.1,2.3,0.2L432.9,252.5"></path>
	<path class="st2" d="M449,250.5c-3.9,0-5,6-5,8.7c0,2.1,0.9,2.8,2.7,2.8c3.9,0,4.9-6,4.9-8.7C451.6,251.2,450.7,250.5,449,250.5    M445.3,269.8c-7.6,0-11.4-3.3-11.4-9.8c0-7.3,3.6-17.1,16.3-17.1c7.6,0,11.4,3.4,11.4,9.8C461.6,260,458,269.8,445.3,269.8"></path>
	<path class="st2" d="M167,260.9h-1.9l3.5-17.7h2.7c4.1,0,5.6,2.4,5.6,5.8C176.7,255.6,173.1,260.9,167,260.9 M176.1,243.8l6.5-6.3   c-2.5-1.5-6-2.2-10.4-2.2h-12.5l-6.5,33.6h13.1c15.2,0,21.2-10.6,21.2-21.6c0-2.9-0.6-5.2-1.8-6.9L176.1,243.8"></path>
</g>
<path class="st1" d="M65,41.8h-2.3v-2.1c-0.7,1.5-2.1,2.2-3.8,2.2c-2.4,0-3.9-1.6-3.9-4.1v-6.7h2.3v6c0,1.6,0.9,2.6,2.5,2.6  c1.8,0,2.9-1.5,2.9-3.3v-5.2H65V41.8z M75.4,32.1l-0.8,1.7c-0.9-0.6-2-0.9-3.1-0.9c-0.9,0-1.5,0.3-1.5,1.1c0,2,5.7,0.9,5.7,4.8  c0,2.2-2,3.2-4.1,3.2c-1.6,0-3.1-0.5-4.3-1.5l0.8-1.6c1,0.8,2.3,1.3,3.6,1.3c1,0,1.7-0.3,1.7-1.1c0-2.2-5.6-1-5.6-4.8  c0-2.2,1.9-3.1,3.9-3.1C72.9,31,74.2,31.4,75.4,32.1z M87.5,37.3h-8.1c0.1,0.8,0.6,1.5,1.2,2c0.6,0.5,1.4,0.7,2.2,0.7  c0.6,0,1.1-0.1,1.6-0.3c0.5-0.2,1-0.5,1.4-0.9L87,40c-0.6,0.6-1.3,1.1-2,1.4c-0.8,0.3-1.6,0.5-2.4,0.4c-3.3,0-5.5-2.2-5.5-5.4  s2.2-5.4,5.4-5.4C86.3,31,87.8,33.5,87.5,37.3z M85.5,35.6c-0.1-1.7-1.2-2.8-3-2.8c-0.8,0-1.5,0.2-2.1,0.8c-0.6,0.5-0.9,1.2-1,2  H85.5z M92.2,33.2c0.3-0.7,0.9-1.3,1.5-1.7c0.7-0.4,1.4-0.6,2.2-0.5v2.2c-2.1-0.1-3.5,1.1-3.7,3v5.6h-2.3V31.1h2.3V33.2z   M106.6,32.7l-0.9,1.1c-0.8-0.8-2-1.2-3.2-1.2c-2.2,0-3.8,1.6-3.8,3.9c0,2.3,1.5,3.9,3.8,3.9c0.6,0,1.2-0.1,1.8-0.3  c0.6-0.2,1.1-0.6,1.5-1l0.9,1c-0.5,0.6-1.2,1.1-1.9,1.4c-0.7,0.3-1.5,0.5-2.3,0.4c-3.1,0-5.2-2.2-5.2-5.3c0-3.2,2.2-5.3,5.2-5.3  c0.7,0,1.5,0.1,2.2,0.3C105.4,31.8,106,32.2,106.6,32.7z M118.2,37.1h-8.6c0.1,0.9,0.5,1.8,1.2,2.5c0.7,0.6,1.6,1,2.6,0.9  c0.6,0,1.2-0.1,1.8-0.3c0.6-0.2,1.1-0.6,1.5-1l0.9,0.9c-0.5,0.6-1.2,1-1.9,1.3c-0.7,0.3-1.5,0.4-2.3,0.4c-3.1,0-5.3-2.2-5.3-5.3  c0-3.2,2.2-5.3,5.2-5.3C116.7,31.1,118.4,33.5,118.2,37.1z M116.8,35.8c-0.1-2-1.5-3.3-3.5-3.3c-0.9,0-1.8,0.3-2.5,0.9  c-0.7,0.6-1.1,1.5-1.2,2.4H116.8z M130.1,35.2v6.5h-1.5v-6.1c0-1.9-1.1-3-3-3c-2.1,0-3.4,1.4-3.6,3.4v5.7h-1.5V31.2h1.5v2.3  c0.7-1.6,2.2-2.4,4.1-2.4C128.6,31.1,130.1,32.7,130.1,35.2z M138.5,41.1c-0.7,0.5-1.5,0.8-2.4,0.8c-1.5,0-2.7-0.9-2.7-3v-6h-1.5  v-1.3h1.5v-2.8h1.5v2.8h3.4v1.3H135v5.7c0,1.3,0.5,1.8,1.4,1.8c0.6,0,1.2-0.2,1.7-0.5L138.5,41.1z M143,33.5  c0.3-0.7,0.8-1.4,1.5-1.8s1.5-0.6,2.3-0.6v1.6c-2.2,0-3.6,1.3-3.8,3.4v5.6h-1.5V31.2h1.5V33.5z M151.2,28.2c0,0.3-0.1,0.5-0.3,0.7  c-0.2,0.2-0.5,0.3-0.7,0.3c-0.3,0-0.5-0.1-0.7-0.3c-0.2-0.2-0.3-0.5-0.3-0.7c0-0.3,0.1-0.5,0.3-0.7c0.2-0.2,0.5-0.3,0.7-0.3  c0.3,0,0.5,0.1,0.7,0.3C151.1,27.6,151.2,27.9,151.2,28.2z M149.4,41.8V31.2h1.5v10.6H149.4z M162.5,32.7l-0.9,1.1  c-0.8-0.8-2-1.2-3.2-1.2c-2.2,0-3.8,1.6-3.8,3.9c0,2.3,1.5,3.9,3.8,3.9c0.6,0,1.2-0.1,1.8-0.3c0.6-0.2,1.1-0.6,1.5-1l0.9,1  c-0.5,0.6-1.2,1.1-1.9,1.4c-0.7,0.3-1.5,0.5-2.3,0.4c-3.1,0-5.2-2.2-5.2-5.3c0-3.2,2.2-5.3,5.2-5.3c0.8,0,1.5,0.1,2.2,0.3  C161.3,31.8,162,32.2,162.5,32.7z M171.7,32.1l-0.6,1.2c-0.9-0.5-1.9-0.8-2.9-0.9c-1.2,0-2.1,0.4-2.1,1.4c0,2.3,5.9,1.1,5.9,4.9  c0,2.1-1.9,3-3.9,3c-1.5,0-2.9-0.5-4.1-1.5l0.6-1.2c1,0.9,2.2,1.3,3.5,1.3c1.2,0,2.3-0.5,2.3-1.5c0.1-2.6-5.9-1.2-5.8-5  c0-2,1.7-2.9,3.7-2.9C169.5,31.1,170.7,31.4,171.7,32.1z"></path>
</svg>
